<svg xmlns="http://www.w3.org/2000/svg" width="500" height="500" viewBox="0 0 500 500"><g transform="translate(133.67826652385662,133.80281690140845)translate(116.07112638532264,116.15140845070424)rotate(0)translate(-116.07112638532264,-116.15140845070424) scale(2.8606255236790985,2.8606255236790985)" opacity="1"><defs class="defs"/><path transform="translate(-9.422627111472677,-9.397000000000016)" d="M82.921,90.604v0l-0.167,-0.002c-5.749,-0.098 -9.958,-1.627 -12.512,-4.547c-2.246,-2.57 -3.669,-6.074 -4.351,-10.711c-0.104,-0.711 -0.202,-1.439 -0.293,-2.199c-5.876,9.838 -13.196,15.42 -22.328,17.039c-1.446,0.258 -2.897,0.389 -4.313,0.389c-14.385,0 -23.6,-12.982 -27.12,-24.1c-5.004,-15.8 -2.129,-32.153 7.69,-43.742c6.968,-8.225 16.75,-13.334 25.528,-13.334c4.728,0 9.119,1.4 13.049,4.161c4.926,3.459 8.896,8.368 11.822,14.611c0.824,-4.143 1.589,-8.517 2.279,-13.035c0.41,-2.688 4.789,-4.174 7.66,-4.174c1.097,0 2.577,0.201 3.4,1.16c0.453,0.527 0.632,1.208 0.515,1.97c-2.042,13.372 -4.721,25.053 -8.188,35.703c0.293,2.443 0.528,5.054 0.697,7.767c0.073,1.188 0.105,2.572 0.14,4.039c0.211,9.111 0.5,21.59 10.287,21.754c1.323,0.023 3.023,0.578 3.63,1.742c0.266,0.512 0.432,1.344 -0.285,2.404c-1.546,2.29 -4.813,3.105 -7.14,3.105zM66.537,68.598l0.225,2.256c0.153,1.547 0.324,2.949 0.52,4.285c0.642,4.363 1.956,7.631 4.02,9.99c2.28,2.609 6.142,3.977 11.477,4.066l0.144,0.002c2.14,0 4.817,-0.768 5.979,-2.486c0.399,-0.59 0.251,-0.875 0.202,-0.969c-0.297,-0.568 -1.483,-0.969 -2.406,-0.984c-11.14,-0.188 -11.46,-13.992 -11.672,-23.129c-0.034,-1.451 -0.065,-2.822 -0.138,-3.982c-0.171,-2.742 -0.409,-5.381 -0.708,-7.84l-0.02,-0.154l0.049,-0.148c3.467,-10.615 6.144,-22.269 8.184,-35.626c0.072,-0.471 -0.075,-0.706 -0.191,-0.842c-0.366,-0.426 -1.218,-0.67 -2.335,-0.67c-2.618,0 -6.026,1.375 -6.271,2.98c-0.815,5.336 -1.733,10.475 -2.731,15.271l-0.465,2.233l-0.873,-2.107c-2.887,-6.968 -7.001,-12.363 -12.229,-16.035c-3.688,-2.591 -7.808,-3.905 -12.242,-3.905c-8.375,0 -17.747,4.919 -24.456,12.837c-9.506,11.218 -12.28,27.072 -7.423,42.409c3.377,10.664 12.156,23.117 25.781,23.117c1.333,0 2.701,-0.123 4.067,-0.365c9.381,-1.666 16.506,-7.453 22.421,-18.217zM42.319,84.615c-2.996,0 -6.232,-1.234 -9.114,-3.475c-12.888,-10.025 -16.178,-30.303 -11.913,-44.116c2.187,-7.081 9.155,-20.752 19.878,-21.816c0.278,-0.027 0.557,-0.041 0.833,-0.041c3.851,0 8.03,2.61 12.421,7.757c4.067,4.767 7.057,10.954 9.136,18.913c0.75,2.868 1.314,6.038 1.729,9.689l0.018,0.152l-0.049,0.148c-2.195,6.627 -4.717,12.734 -7.494,18.15c-1.998,3.898 -4.839,8.826 -9.111,12.371c-1.815,1.507 -3.945,2.268 -6.334,2.268zM42.003,16.572c-0.23,0 -0.462,0.011 -0.694,0.034c-9.989,0.991 -16.583,14.06 -18.674,20.833c-4.124,13.357 -0.976,32.94 11.433,42.592c2.636,2.049 5.566,3.18 8.251,3.18c2.052,0 3.881,-0.654 5.436,-1.943c4.075,-3.383 6.821,-8.152 8.759,-11.932c2.724,-5.313 5.2,-11.303 7.361,-17.805c-0.409,-3.567 -0.942,-6.538 -1.674,-9.339c-2.025,-7.749 -4.918,-13.754 -8.846,-18.356c-4.111,-4.82 -7.931,-7.264 -11.352,-7.264z" fill="#000000" class="fill c1"/></g></svg>